<?xml version="1.0" encoding="UTF-8" standalone="no"?>
<svg
   xmlns:dc="http://purl.org/dc/elements/1.1/"
   xmlns:cc="http://creativecommons.org/ns#"
   xmlns:rdf="http://www.w3.org/1999/02/22-rdf-syntax-ns#"
   xmlns:svg="http://www.w3.org/2000/svg"
   xmlns="http://www.w3.org/2000/svg"
   xmlns:xlink="http://www.w3.org/1999/xlink"
   width="122.93436mm"
   height="38.499928mm"
   viewBox="0 0 122.93435 38.499928"
   version="1.1"
   id="svg2143">
  <defs
     id="defs2137">
    <rect
       x="55.5625"
       y="129.26785"
       width="136.21361"
       height="42.597343"
       id="rect2708" />
    <rect
       x="55.5625"
       y="129.26785"
       width="123.1174"
       height="43.933693"
       id="rect2708-5" />
    <rect
       x="55.5625"
       y="129.26785"
       width="118.30655"
       height="31.372025"
       id="rect2725" />
    <rect
       x="55.5625"
       y="129.26785"
       width="136.21361"
       height="42.597343"
       id="rect2708-9" />
    <rect
       x="55.5625"
       y="129.26785"
       width="136.21361"
       height="42.597343"
       id="rect2761" />
    <rect
       x="55.5625"
       y="129.26785"
       width="123.1174"
       height="43.933693"
       id="rect2708-5-3" />
    <rect
       x="55.5625"
       y="129.26785"
       width="123.1174"
       height="43.933693"
       id="rect2764" />
    <linearGradient
       xlink:href="#linearGradient1002"
       id="linearGradient1004"
       x1="29.457537"
       y1="135.99364"
       x2="37.707413"
       y2="156.26247"
       gradientUnits="userSpaceOnUse"
       gradientTransform="translate(-20.707412,-129.25006)" />
    <linearGradient
       id="linearGradient1002">
      <stop
         style="stop-color:#326400;stop-opacity:1"
         offset="0"
         id="stop998" />
      <stop
         style="stop-color:#329600;stop-opacity:1"
         offset="1"
         id="stop1006" />
    </linearGradient>
  </defs>
  <metadata
     id="metadata2140">
    <rdf:RDF>
      <cc:Work
         rdf:about="">
        <dc:format>image/svg+xml</dc:format>
        <dc:type
           rdf:resource="http://purl.org/dc/dcmitype/StillImage" />
        <dc:title></dc:title>
      </cc:Work>
    </rdf:RDF>
  </metadata>
  <path
     id="path847-8"
     style="fill:url(#linearGradient1004);fill-opacity:1;stroke:none;stroke-width:3.94787999;font-variation-settings:normal;opacity:1;vector-effect:none;stroke-linecap:butt;stroke-linejoin:miter;stroke-miterlimit:4;stroke-dasharray:none;stroke-dashoffset:0;stroke-opacity:1;stop-color:#000000;stop-opacity:1"
     d="M 17.000021,2 2,10.624905 v 17.250119 l 15.000021,8.624904 15.000023,-8.624904 V 10.624905 Z m 0,4.312453 11.250015,6.468755 V 25.71872 L 17.000022,32.187475 5.750006,25.71872 V 12.781208 Z M 8.75897,12.781208 7.250069,13.648907 V 15.4812 h 3.965961 l 3.132523,3.132368 2.015072,-2.015072 -3.817133,-3.817288 H 11.683754 10.74102 Z m 12.694735,0 -2.299396,2.299396 -2.154133,2.154133 v 1.59e-4 l -2.015382,2.015072 -3.768609,3.768763 H 7.250069 v 1.832292 l 1.508901,0.8677 h 1.981895 0.942889 0.862893 l 1.253878,-1.253878 5.214723,-5.214877 2.723401,-2.723402 1.045518,-1.045363 h 3.965962 v -1.832292 l -1.508901,-0.8677 H 23.259177 22.4014 Z m -1.802061,7.105151 -2.015227,2.015228 3.817133,3.817133 h 0.94785 0.857932 1.981896 l 1.508901,-0.8677 v -1.832292 h -3.966117 z" />
  <path
     d="m 64.503647,26.1746 q 0,0.82682 -0.292834,1.77423 -0.275607,0.9474 -0.930176,1.757 -0.637343,0.80959 -1.670872,1.36081 -1.03353,0.53399 -2.532147,0.53399 H 42.07606 q -0.482314,0 -0.895725,-0.17226 -0.413412,-0.17225 -0.723471,-0.46508 -0.292833,-0.31006 -0.465088,-0.72347 -0.172255,-0.41342 -0.172255,-0.89573 V 9.15582 q 0,-0.46509 0.172255,-0.8785 0.172255,-0.41341 0.465088,-0.72347 0.310059,-0.31006 0.723471,-0.48232 0.413411,-0.17225 0.895725,-0.17225 h 14.986175 q 0.826824,0 1.774226,0.29283 0.947402,0.29284 1.757,0.9474 0.826823,0.63735 1.360813,1.67088 0.551216,1.03353 0.551216,2.53214 v 0.84405 q 0,1.18856 -0.396186,2.5666 -0.396187,1.36081 -1.274686,2.58382 0.757921,0.46509 1.41249,1.11966 0.671794,0.65457 1.171333,1.51584 0.499539,0.86128 0.792372,1.94648 0.292834,1.08521 0.292834,2.39435 z M 60.02502,25.31333 q 0,-0.8785 -0.275608,-1.56752 Q 59.473804,23.03956 58.974265,22.54002 58.474726,22.04048 57.76848,21.7821 57.062235,21.50649 56.183735,21.50649 H 46.089599 v -4.51307 h 8.078754 q 0.8785,0 1.584745,-0.25839 0.706245,-0.27561 1.205784,-0.77514 0.49954,-0.49954 0.757922,-1.18856 0.275608,-0.70625 0.275608,-1.58475 v -0.84405 q 0,-0.96462 -0.930177,-0.96462 H 44.298148 V 27.122 h 14.77947 q 0.120578,0 0.292833,-0.0172 0.172255,-0.0172 0.310059,-0.10336 0.137804,-0.0861 0.241157,-0.29283 0.103353,-0.2067 0.103353,-0.56844 z"
     style="font-style:normal;font-weight:normal;font-size:35.2778px;line-height:1.25;font-family:Audiowide;-inkscape-font-specification:Audiowide;white-space:pre;fill:#329600;fill-opacity:1;stroke:none;stroke-width:0.264583"
     id="path868" />
  <path
     d="m 93.011831,17.23457 q 0,1.53307 -0.37896,2.73885 -0.37896,1.20579 -1.03353,2.13597 -0.63734,0.91295 -1.48139,1.56751 -0.84405,0.65457 -1.77423,1.06799 -0.91295,0.41341 -1.86035,0.60289 -0.93018,0.18948 -1.757,0.18948 H 74.597783 v -4.47863 h 10.128588 q 0.86127,-0.0689 1.55029,-0.34451 0.70625,-0.29283 1.20579,-0.77515 0.49954,-0.48231 0.77514,-1.1541 0.27561,-0.68902 0.27561,-1.5503 v -2.03261 q -0.0861,-0.84404 -0.36173,-1.55029 -0.27561,-0.70624 -0.75792,-1.20578 -0.46509,-0.49954 -1.13689,-0.77515 -0.67179,-0.29283 -1.55029,-0.29283 H 74.632234 q -0.895726,0 -1.360814,0.46508 -0.465088,0.46509 -0.465088,1.34359 V 31.60063 H 68.327705 V 13.18658 q 0,-1.72255 0.620118,-2.92833 0.637343,-1.20579 1.567519,-1.94648 0.947402,-0.7407 2.049833,-1.06798 1.102432,-0.34451 2.032608,-0.34451 h 10.128588 q 1.51584,0 2.72163,0.39618 1.20578,0.37897 2.11873,1.03353 0.93018,0.63735 1.56752,1.4814 0.65457,0.84405 1.06798,1.77422 0.43064,0.91295 0.62012,1.86035 0.18948,0.93018 0.18948,1.757 z"
     style="font-style:normal;font-weight:normal;font-size:35.2778px;line-height:1.25;font-family:Audiowide;-inkscape-font-specification:Audiowide;white-space:pre;fill:#329600;fill-opacity:1;stroke:none;stroke-width:0.264583"
     id="path870" />
  <path
     d="m 107.27454,15.71873 7.54476,-8.81945 h 6.11505 l -10.62813,12.38513 10.55923,12.31622 h -6.0806 l -7.51031,-8.75055 -7.475869,8.75055 h -6.09782 L 104.24285,19.28441 93.666401,6.89928 h 6.06337 z"
     style="font-style:normal;font-weight:normal;font-size:35.2778px;line-height:1.25;font-family:Audiowide;-inkscape-font-specification:Audiowide;white-space:pre;fill:#329600;fill-opacity:1;stroke:none;stroke-width:0.264583"
     id="path872" />
</svg>
